<svg xmlns="http://www.w3.org/2000/svg" width="40.063" height="26.015" viewBox="0 0 40.063 26.015">
  <g id="Group_1132" data-name="Group 1132" transform="translate(-1774.328 86.188)">
    <path id="Path_371" data-name="Path 371" d="M1812.084-56.894h-8.417a3.056,3.056,0,0,0,.979,2.12,3.093,3.093,0,0,0,2.16.8,2.667,2.667,0,0,0,2.6-1.539h2.459a4.962,4.962,0,0,1-1.81,2.489,5.31,5.31,0,0,1-3.249.969,5.624,5.624,0,0,1-2.829-.71,5.047,5.047,0,0,1-1.959-2,6.1,6.1,0,0,1-.71-2.989,6.25,6.25,0,0,1,.69-2.989,4.848,4.848,0,0,1,1.94-1.989,5.764,5.764,0,0,1,2.869-.7,5.611,5.611,0,0,1,2.778.681,4.8,4.8,0,0,1,1.9,1.909,5.755,5.755,0,0,1,.68,2.829A7.16,7.16,0,0,1,1812.084-56.894Zm-2.3-1.839a2.6,2.6,0,0,0-.9-2.019,3.218,3.218,0,0,0-2.179-.76,2.932,2.932,0,0,0-2.02.749,3.133,3.133,0,0,0-1,2.03Z" transform="translate(-9.623 -8.117)" fill="#fff"/>
    <g id="Group_1130" data-name="Group 1130" transform="translate(1804.47 -72.89)">
      <path id="Path_372" data-name="Path 372" d="M1824.581-63.077a4.312,4.312,0,0,1,1.974-.448,4.456,4.456,0,0,1,2.318.615,4.318,4.318,0,0,1,1.633,1.747,5.469,5.469,0,0,1,.6,2.589,5.575,5.575,0,0,1-.6,2.607,4.457,4.457,0,0,1-1.642,1.791,4.329,4.329,0,0,1-2.309.641,4.365,4.365,0,0,1-1.992-.439,3.821,3.821,0,0,1-1.378-1.124v1.4h-2V-65.517h2v3.59A3.8,3.8,0,0,1,1824.581-63.077Zm4.073,2.775a2.828,2.828,0,0,0-1.089-1.106,2.931,2.931,0,0,0-1.449-.378,2.842,2.842,0,0,0-1.431.387,2.882,2.882,0,0,0-1.089,1.124,3.505,3.505,0,0,0-.411,1.738,3.555,3.555,0,0,0,.411,1.747,2.858,2.858,0,0,0,1.089,1.132,2.835,2.835,0,0,0,1.431.387,2.818,2.818,0,0,0,1.449-.395,2.911,2.911,0,0,0,1.089-1.15,3.609,3.609,0,0,0,.413-1.756A3.458,3.458,0,0,0,1828.654-60.3Z" transform="translate(-1821.183 65.517)" fill="#fff"/>
    </g>
    <path id="Path_373" data-name="Path 373" d="M1789.467-54.678l-3.041-8.754h-2.36l4.095,10.743h2.651l4.075-10.743h-2.378Z" transform="translate(-3.473 -8.117)" fill="#fff"/>
    <path id="Path_374" data-name="Path 374" d="M1803.525-77.565h-8.417a3.055,3.055,0,0,0,.98,2.12,3.091,3.091,0,0,0,2.159.8,2.668,2.668,0,0,0,2.6-1.539h2.459A4.97,4.97,0,0,1,1801.5-73.7a5.311,5.311,0,0,1-3.249.969,5.621,5.621,0,0,1-2.829-.71,5.043,5.043,0,0,1-1.959-2,6.1,6.1,0,0,1-.71-2.989,6.241,6.241,0,0,1,.689-2.989,4.852,4.852,0,0,1,1.939-1.99,5.774,5.774,0,0,1,2.869-.7,5.614,5.614,0,0,1,2.779.681,4.8,4.8,0,0,1,1.9,1.909,5.753,5.753,0,0,1,.679,2.829A7.117,7.117,0,0,1,1803.525-77.565Zm-2.3-1.839a2.6,2.6,0,0,0-.9-2.019,3.219,3.219,0,0,0-2.18-.76,2.93,2.93,0,0,0-2.019.749,3.137,3.137,0,0,0-1,2.03Z" transform="translate(-6.571 -0.744)" fill="#fff"/>
    <g id="Group_1131" data-name="Group 1131" transform="translate(1774.328 -86.188)">
      <path id="Path_375" data-name="Path 375" d="M1780.851-83.748a4.315,4.315,0,0,0-1.975-.448,4.454,4.454,0,0,0-2.317.615,4.32,4.32,0,0,0-1.633,1.747,5.475,5.475,0,0,0-.6,2.59,5.578,5.578,0,0,0,.6,2.607,4.46,4.46,0,0,0,1.642,1.791,4.331,4.331,0,0,0,2.309.641,4.37,4.37,0,0,0,1.993-.439,3.83,3.83,0,0,0,1.378-1.124v1.4h2V-86.188h-2v3.59A3.8,3.8,0,0,0,1780.851-83.748Zm-4.073,2.775a2.821,2.821,0,0,1,1.088-1.106,2.928,2.928,0,0,1,1.448-.378,2.843,2.843,0,0,1,1.431.387,2.875,2.875,0,0,1,1.089,1.124,3.5,3.5,0,0,1,.412,1.738,3.549,3.549,0,0,1-.412,1.747,2.851,2.851,0,0,1-1.089,1.132,2.837,2.837,0,0,1-1.431.387,2.821,2.821,0,0,1-1.448-.395,2.9,2.9,0,0,1-1.088-1.15,3.6,3.6,0,0,1-.413-1.756A3.452,3.452,0,0,1,1776.778-80.973Z" transform="translate(-1774.328 86.188)" fill="#fff"/>
    </g>
  </g>
</svg>
